<svg xmlns="http://www.w3.org/2000/svg" data-name="Layer 1" viewBox="0 0 100 125" x="0px" y="0px"><title>Bible</title><path d="M36.99054,35.56177H48.13666V63.24872a.3005.3005,0,0,0,.30053.30054h4.97406a.30049.30049,0,0,0,.30048-.30054V35.56177H64.85785a.28907.28907,0,0,0,.28906-.28906v-4.997a.28907.28907,0,0,0-.28906-.28907H53.71173V18.75244a.30047.30047,0,0,0-.30048-.30047H48.43719a.30048.30048,0,0,0-.30053.30047V29.98663H36.99054a.28911.28911,0,0,0-.28906.28907v4.997A.28911.28911,0,0,0,36.99054,35.56177Z"/><path d="M74.71826,6.79443H27.31348c-3.22266,0-4.78907,1.7168-4.78907,5.248V79.27783c0,3.53125,1.56641,5.24756,4.78907,5.24756H36.96v8.68018l5.6294-5.08155,5.62939,5.08155V84.52539H72.46094a2.7603,2.7603,0,0,0,2.75732-2.75732V74.97925a2.75782,2.75782,0,0,0,2.25733-2.70679V9.55176A2.76031,2.76031,0,0,0,74.71826,6.79443ZM35.70148,30.2757a1.29057,1.29057,0,0,1,1.28906-1.28907H47.13666V18.75244A1.30193,1.30193,0,0,1,48.43719,17.452h4.97406a1.30192,1.30192,0,0,1,1.30048,1.30047V28.98663H64.85785a1.29054,1.29054,0,0,1,1.28906,1.28907v4.997a1.29053,1.29053,0,0,1-1.28906,1.28906H54.71173V63.24872a1.302,1.302,0,0,1-1.30048,1.30054H48.43719a1.302,1.302,0,0,1-1.30053-1.30054V36.56177H36.99054a1.29057,1.29057,0,0,1-1.28906-1.28906ZM74.21826,81.76807a1.7593,1.7593,0,0,1-1.75732,1.75732H48.21875V78.79785a.5.5,0,0,0-1,0V90.95557l-4.62939-4.17823L37.96,90.95557V78.79785a.5.5,0,0,0-1,0v4.72754H27.31348c-2.65577,0-3.78907-1.27051-3.78907-4.24756,0-2.97754,1.1333-4.248,3.78907-4.248H74.21826Z"/>
</svg>