<svg xmlns="http://www.w3.org/2000/svg" xmlns:xlink="http://www.w3.org/1999/xlink" version="1.1" x="0px" y="0px" viewBox="0 0 2000 2500" style="enable-background:new 0 0 2000 2000;" xml:space="preserve"><g><g><path d="M833.39,646.4l13.57,9.05c-70.37,43.23-110.08,107.56-119.12,193.01c134.18,39.71,201.29,119.87,201.29,240.5    c0,74.39-24.63,137.11-73.89,188.11c-49.26,51.03-109.57,76.53-180.95,76.53c-72.38,0-131.95-25.63-178.69-76.9    c-46.74-51.27-70.11-116.85-70.11-196.79c0-100.53,38.81-193.01,116.48-277.45S716.78,666,833.39,646.4z M1478.76,646.4    l13.57,9.05c-70.37,43.23-110.08,107.56-119.12,193.01c134.18,39.71,201.29,119.87,201.29,240.5    c0,74.39-24.63,137.11-73.89,188.11c-49.26,51.03-109.57,76.53-180.95,76.53c-72.38,0-131.95-25.63-178.69-76.9    c-46.74-51.27-70.11-116.85-70.11-196.79c0-100.53,38.81-193.01,116.48-277.45C1265.02,718.02,1362.15,666,1478.76,646.4z"/></g></g></svg>