<svg xmlns="http://www.w3.org/2000/svg" viewBox="0 0 100 125" fill="none" x="0px" y="0px"><path fill-rule="evenodd" clip-rule="evenodd" d="M49.4243 22.0067C49.4243 18.8186 52.9716 16.9117 55.6308 18.6703L91.2551 42.2296C93.6465 43.8111 93.6465 47.3209 91.2551 48.9024L55.6308 72.4618C52.9716 74.2204 49.4243 72.3135 49.4243 69.1254L49.4243 56.8605C33.4408 59.3513 22.9401 67.3 14.4676 79.5322C13.313 81.1993 11.3668 81.5942 9.83191 81.126C8.27134 80.65 6.85601 79.1793 7.01176 77.0578C8.05833 62.8024 11.764 53.325 19.1633 46.8208C26.1687 40.6629 36.2083 37.4363 49.4243 34.9062V22.0067ZM89.0486 45.566L53.4243 22.0067V38.232L51.7859 38.5331C37.8084 41.102 28.2062 44.1976 21.8041 49.8251C15.5168 55.3518 12.0169 63.6069 11.0046 77.3017C11.0541 77.3156 11.0989 77.3119 11.1233 77.3045C11.1333 77.3014 11.139 77.2982 11.1433 77.2951C11.1467 77.2926 11.1599 77.2827 11.1794 77.2546C20.5903 63.6675 32.6294 54.8152 51.1852 52.5804L53.4243 52.3107L53.4243 69.1254L89.0486 45.566Z" fill="black"/></svg>