<svg xmlns="http://www.w3.org/2000/svg" data-name="Layer 1" viewBox="0 0 51.2 64" x="0px" y="0px"><path d="M40.76,19.86a3,3,0,0,0-5.49-.14l-.27-1a3,3,0,0,0-5-.84L27.14,15a3.23,3.23,0,0,0-4.44,0,1.25,1.25,0,0,1-.09.12l-1.24-1.24a3.21,3.21,0,0,0-4.44,0,3.3,3.3,0,0,0-.79,1.38l-.1-.1a3.23,3.23,0,0,0-4.44,0,3.16,3.16,0,0,0,0,4.44l.11.1a3.12,3.12,0,0,0-1.37.79,3.11,3.11,0,0,0,0,4.43l.32.32A3.06,3.06,0,0,0,9.24,26a3.15,3.15,0,0,0,0,4.44l9.21,9.21a9.34,9.34,0,0,0,6.62,2.73,9.67,9.67,0,0,0,1.2-.08,9.33,9.33,0,0,0,4.61,1.22,10.15,10.15,0,0,0,6.58-2.48L40.57,38a7.83,7.83,0,0,0,2.27-5.05C43.1,28.56,42,24.12,40.76,19.86ZM23.84,16.18a1.57,1.57,0,0,1,2.16,0l3.24,3.25a3.37,3.37,0,0,0,0,.44v1.9l-5.47-5.47A1,1,0,0,1,23.84,16.18ZM19.59,38.55l-9.21-9.21a1.52,1.52,0,0,1,0-2.16,1.56,1.56,0,0,1,2.16,0s0,0,0,0l5,5a.82.82,0,0,0,1.14,0,.81.81,0,0,0,0-1.14l-7.19-7.19A1.51,1.51,0,0,1,11,22.74a1.48,1.48,0,0,1,.46-1.08,1.53,1.53,0,0,1,2.16,0l7.19,7.2a.82.82,0,0,0,1.14,0,.81.81,0,0,0,0-1.14l-9.22-9.22a1.5,1.5,0,0,1-.45-1.08,1.54,1.54,0,0,1,.45-1.09,1.57,1.57,0,0,1,2.16,0l2,2h0l7.18,7.19a.81.81,0,0,0,1.14-1.14l-7.19-7.19a1.52,1.52,0,0,1,0-2.16,1.55,1.55,0,0,1,2.17,0l9.21,9.21a.82.82,0,0,0,.88.17.81.81,0,0,0,.49-.74V19.86a1.35,1.35,0,0,1,.07-.44,1.4,1.4,0,0,1,1.32-1,1.43,1.43,0,0,1,1.29.8c.6,2.15,1.08,4,1.45,5.81a26.38,26.38,0,0,1,.53,6.62,6.12,6.12,0,0,1-1.81,4L30.6,38.77a8.33,8.33,0,0,1-4.29,2A7.73,7.73,0,0,1,19.59,38.55Zm21.65-5.74a6.21,6.21,0,0,1-1.81,4L36.37,39.9a8.26,8.26,0,0,1-7.53,1.77A10.47,10.47,0,0,0,31.69,40l3.1-3.11a7.73,7.73,0,0,0,2.28-5.06,27.39,27.39,0,0,0-.55-6.93L36.58,21A1.41,1.41,0,0,1,38,19.58a1.39,1.39,0,0,1,1.26.8C40.44,24.59,41.49,28.71,41.24,32.81ZM20.7,11.67a.8.8,0,1,0,1.15-1.12L20.16,8.79A.81.81,0,0,0,19,9.91Zm4-.46a.8.8,0,0,0,.8-.8v-2a.8.8,0,1,0-1.6,0v2A.8.8,0,0,0,24.67,11.21Zm3.38.7a.82.82,0,0,0,.56-.23L30.31,10a.8.8,0,0,0-1.12-1.14l-1.7,1.66a.79.79,0,0,0,0,1.13A.78.78,0,0,0,28.05,11.91Z"/></svg>