<svg xmlns="http://www.w3.org/2000/svg" xmlns:xlink="http://www.w3.org/1999/xlink" xmlns:serif="http://www.serif.com/" viewBox="0 0 48 60" version="1.1" xml:space="preserve" style="" x="0px" y="0px" fill-rule="evenodd" clip-rule="evenodd" stroke-linejoin="round" stroke-miterlimit="2"><g transform="matrix(1,0,0,1,-144,-240)"><g><path d="M154.707,243.293L162.707,251.293C163.098,251.683 163.098,252.317 162.707,252.707C162.707,252.707 158.507,256.907 157.667,257.747C157.13,258.285 157.269,258.87 157.284,258.925C157.826,260.504 159.387,263.973 163.707,268.293C168.032,272.618 171.503,274.177 173.076,274.717C173.437,274.841 173.838,274.748 174.108,274.478L179.293,269.293C179.683,268.902 180.317,268.902 180.707,269.293C180.707,269.293 188.707,277.293 188.707,277.293C189.098,277.683 189.098,278.317 188.707,278.707C188.707,278.707 185.991,281.423 184.212,283.194C184.211,283.195 184.211,283.195 184.21,283.196C182.985,284.421 181.212,284.924 179.525,284.524C179.522,284.523 179.519,284.522 179.515,284.521C175.596,283.547 167.261,280.675 159.293,272.707C151.326,264.74 148.453,256.405 147.473,252.488C147.472,252.484 147.471,252.48 147.47,252.476C147.07,250.788 147.573,249.012 148.8,247.786L153.293,243.293C153.683,242.902 154.317,242.902 154.707,243.293Z"/></g></g></svg>