<svg xmlns="http://www.w3.org/2000/svg" viewBox="0 0 32 40" x="0px" y="0px"><path d="m29.57001,7.5c-.66897.60322-10.95223,9.89021-11.96007,10.78999-.43996.42998-1.01991.64001-1.59993.64001-.59003,0-1.17999-.21002-1.64001-.64996L2.64001,7.10999c-.41003.66003-.64001,1.45001-.64001,2.28003v13.21997c0,2.39001,1.89001,4.33002,4.21997,4.33002h19.56006c2.32996,0,4.21997-1.94,4.21997-4.33002v-13.21997c0-.67004-.15002-1.32001-.42999-1.89001Z"/><path d="m15.75,16.83002c.14001.13995.35999.13995.5,0,.93903-.84517,11.50015-10.37813,12.07001-10.89001-.70001-.56-1.59003-.88001-2.53998-.88001H6.21997c-.78998,0-1.53998.22003-2.16998.62.6032.57933,10.7567,10.25075,11.70001,11.15002Z"/></svg>