<svg xmlns="http://www.w3.org/2000/svg" xmlns:xlink="http://www.w3.org/1999/xlink" version="1.1" x="0px" y="0px" viewBox="0 0 100 125" style="enable-background:new 0 0 100 100;" xml:space="preserve"><style type="text/css">
	.st0{fill:none;stroke:#000000;stroke-width:4;stroke-linecap:round;stroke-linejoin:round;stroke-miterlimit:10;}
	.st1{fill:none;stroke:#000000;stroke-width:4;stroke-linejoin:round;stroke-miterlimit:10;}
	.st2{fill:none;stroke:#000000;stroke-width:6;stroke-linejoin:round;stroke-miterlimit:10;}
	.st3{fill:none;stroke:#000000;stroke-width:6;stroke-miterlimit:10;}
	.st4{fill:none;stroke:#000000;stroke-width:6;stroke-linecap:round;stroke-miterlimit:10;}
</style><g><path d="M86.9,47.7c-1.1-19.1-16.4-34.4-35.5-35.6c-10.8-0.7-21,3-28.8,10.5C15.1,29.9,10.8,40.2,11,50.8c0.4,20,17,36.6,36.9,37.2   c6.9,0.2,13.7-1.5,19.7-4.9l16.8,4.8C84.6,88,84.8,88,85,88c0.5,0,1.1-0.2,1.4-0.6c0.5-0.5,0.7-1.3,0.5-2l-5.2-16.1   C85.6,62.8,87.4,55.3,86.9,47.7z M78.1,67.5c-0.5,0.8-0.6,1.7-0.3,2.6L82,83l-13.3-3.8c-1-0.3-2-0.2-2.9,0.4   c-5.4,3-11.5,4.6-17.7,4.4c-17.8-0.5-32.7-15.4-33-33.3c-0.2-9.5,3.6-18.7,10.5-25.3C31.9,19.3,40.2,16,49,16c0.7,0,1.5,0,2.2,0.1   c17.1,1.1,30.7,14.8,31.7,31.9C83.3,54.9,81.7,61.6,78.1,67.5z"/></g></svg>